<svg xmlns="http://www.w3.org/2000/svg" width="109" height="28" fill="none"><path d="M 1 2.05 L 1 19.193 C 2.291 19.193 3.441 18.917 4.538 18.403 L 4.556 6.014 C 5.827 6.405 7.002 6.995 8.111 7.735 L 8.111 15.918 C 9.231 14.907 10.387 13.656 11.667 12.198 L 11.667 10.732 C 12.693 11.763 13.687 12.898 14.684 14.053 C 13.69 15.218 12.697 16.331 11.667 17.358 C 10.547 18.507 9.373 19.535 8.111 20.375 C 7.009 21.112 5.836 21.712 4.556 22.089 C 3.453 22.432 2.28 22.621 1 22.621 L 1 26.05 C 8.236 26.05 12.804 21.559 17 16.742 C 16.538 16.21 16.094 15.68 15.632 15.148 C 20.219 20.511 24.965 26.05 33 26.05 L 33 22.621 C 26.639 22.621 22.624 17.927 18.372 12.959 C 13.783 7.595 9.037 2.05 1 2.05 Z M 33 2.05 C 27.08 2.05 22.956 5.05 19.365 8.77 C 19.969 9.438 20.539 10.107 21.108 10.775 C 21.303 10.998 21.478 11.223 21.656 11.428 C 21.887 11.188 22.102 10.965 22.333 10.742 L 22.333 12.198 C 23.613 13.656 24.769 14.907 25.889 15.918 L 25.889 7.725 C 27.009 6.988 28.182 6.388 29.462 6.011 L 29.444 18.423 C 30.541 18.92 31.692 19.193 32.983 19.193 Z" fill="rgb(234,55,69)"></path><path d="M 42.863 4.704 L 46.67 4.704 L 46.67 23.55 L 42.863 23.55 Z M 54.716 4.704 L 58.523 4.704 L 58.523 23.55 L 54.716 23.55 Z M 46.13 12.453 L 55.391 12.453 L 55.391 15.531 L 46.13 15.531 Z" fill="rgb(65, 66, 70)"></path><path d="M 69.344 23.739 C 68.192 23.739 67.121 23.559 66.131 23.199 C 65.159 22.839 64.304 22.326 63.566 21.66 C 62.846 20.994 62.279 20.202 61.865 19.284 C 61.469 18.348 61.271 17.313 61.271 16.179 C 61.271 15.009 61.478 13.947 61.892 12.993 C 62.306 12.039 62.882 11.22 63.62 10.536 C 64.358 9.852 65.204 9.33 66.158 8.97 C 67.112 8.592 68.12 8.403 69.182 8.403 C 70.082 8.403 70.928 8.529 71.72 8.781 C 72.512 9.015 73.205 9.357 73.799 9.807 C 74.411 10.239 74.879 10.761 75.203 11.373 C 75.545 11.985 75.716 12.651 75.716 13.371 C 75.716 14.307 75.446 15.09 74.906 15.72 C 74.366 16.35 73.646 16.854 72.746 17.232 C 71.864 17.592 70.892 17.844 69.83 17.988 C 68.768 18.114 67.724 18.159 66.698 18.123 C 66.536 18.105 66.347 18.096 66.131 18.096 C 65.915 18.096 65.717 18.096 65.537 18.096 C 65.375 18.078 65.267 18.069 65.213 18.069 C 65.321 18.555 65.573 19.005 65.969 19.419 C 66.383 19.833 66.887 20.157 67.481 20.391 C 68.075 20.607 68.714 20.715 69.398 20.715 C 69.992 20.715 70.568 20.616 71.126 20.418 C 71.684 20.22 72.197 19.95 72.665 19.608 C 73.151 19.248 73.547 18.861 73.853 18.447 L 76.472 20.418 C 75.896 21.174 75.23 21.804 74.474 22.308 C 73.718 22.794 72.908 23.154 72.044 23.388 C 71.18 23.622 70.28 23.739 69.344 23.739 Z M 66.833 15.396 C 67.427 15.396 68.021 15.369 68.615 15.315 C 69.227 15.261 69.785 15.162 70.289 15.018 C 70.811 14.856 71.225 14.64 71.531 14.37 C 71.855 14.082 72.017 13.722 72.017 13.29 C 72.017 12.93 71.891 12.615 71.639 12.345 C 71.405 12.057 71.081 11.832 70.667 11.67 C 70.271 11.49 69.812 11.4 69.29 11.4 C 68.462 11.4 67.724 11.589 67.076 11.967 C 66.446 12.345 65.951 12.84 65.591 13.452 C 65.231 14.046 65.033 14.667 64.997 15.315 C 65.213 15.333 65.483 15.351 65.807 15.369 C 66.131 15.387 66.473 15.396 66.833 15.396 Z" fill="rgb(65, 66, 70)"></path><path d="M 78.96 19.527 L 78.96 3.57 L 82.767 3.57 L 82.767 19.284 C 82.767 19.68 82.884 19.977 83.118 20.175 C 83.352 20.373 83.631 20.472 83.955 20.472 C 84.189 20.472 84.387 20.436 84.549 20.364 L 85.251 23.253 C 84.621 23.577 83.901 23.739 83.091 23.739 C 82.425 23.739 81.768 23.604 81.12 23.334 C 80.49 23.046 79.968 22.596 79.554 21.984 C 79.158 21.354 78.96 20.535 78.96 19.527 Z" fill="rgb(65, 66, 70)"></path><path d="M 87.555 23.55 L 87.555 8.592 L 91.389 8.592 L 91.389 23.55 Z M 89.499 6.783 C 88.743 6.783 88.113 6.558 87.609 6.108 C 87.105 5.64 86.853 5.064 86.853 4.38 C 86.853 3.696 87.105 3.12 87.609 2.652 C 88.113 2.184 88.743 1.95 89.499 1.95 C 90.255 1.95 90.885 2.184 91.389 2.652 C 91.893 3.12 92.145 3.696 92.145 4.38 C 92.145 5.064 91.893 5.64 91.389 6.108 C 90.885 6.558 90.255 6.783 89.499 6.783 Z" fill="rgb(65, 66, 70)"></path><path d="M 93.475 8.592 L 97.795 8.592 L 107.731 23.55 L 103.411 23.55 Z M 101.17 17.556 L 97.633 23.55 L 93.556 23.55 L 99.334 14.667 Z M 100.117 14.424 L 103.573 8.592 L 107.65 8.592 L 101.899 17.313 Z" fill="rgb(65, 66, 70)"></path></svg>